<?xml version="1.0" encoding="iso-8859-1"?>
<!-- Generator: Adobe Illustrator 18.0.0, SVG Export Plug-In . SVG Version: 6.00 Build 0)  -->
<!DOCTYPE svg PUBLIC "-//W3C//DTD SVG 1.1//EN" "http://www.w3.org/Graphics/SVG/1.1/DTD/svg11.dtd">
<svg version="1.1" id="Capa_1" xmlns="http://www.w3.org/2000/svg" xmlns:xlink="http://www.w3.org/1999/xlink" x="0px" y="0px"
	 viewBox="0 0 368.63 368.63" style="enable-background:new 0 0 368.63 368.63;" xml:space="preserve">
<g>
	<path style="fill:#4D4D4D;" d="M334.817,141.489c1.478,5.681,2.65,11.379,3.525,17.052c3.142,20.344,2.501,40.567-1.459,59.865
		c-2.205,10.751-5.436,21.211-9.624,31.249c-19.78,47.425-60.714,85.381-114.272,99.31c-54.323,14.128-109.354,0.346-149.89-32.437
		c-15.176-12.265-28.315-27.188-38.628-44.314c-8.265-13.701-14.714-28.804-18.947-45.082c-9.152-35.189-6.599-70.664,5.248-102.305
		c18.764-50.137,60.829-90.66,116.575-105.158C218.279-3.982,311.167,50.554,334.817,141.489z"/>
	<path style="fill:#F7931E;" d="M368.63,194.423l-5.95,9.63l-3.51,5.67l-4.54,7.32l-6.25,10.1l-5.62,9.07
		c-3.76,6.09-9.22,10.7-15.5,13.44c-6.19,2.71-13.18,3.59-20.13,2.3l-53.81-10.03c-41.12-7.65-83.09-1.1-119.36,17.77
		c-5.62,2.92-11.1,6.13-16.43,9.65c-8.57,5.64-16.73,12.04-24.37,19.16l-13.87,12.93l-15.47,14.42l-0.72,0.67
		c-27.32-22.08-48.06-52.79-57.58-89.39c-9.15-35.19-6.6-70.67,5.25-102.31l43.07-6.47l24.66-3.71l55.96-8.42l20.69-3.11l54.14-8.14
		l80.05,22.32c12.09,3.37,22.88,10.31,30.98,19.9l18.02,21.35l18.67,22.12L368.63,194.423z"/>
	<path style="fill:#F7931E;" d="M241.19,117.752l-21.2,11.41l-11.46,6.16l-18.98-35.28c-4.85-9.02-1.48-20.26,7.54-25.11
		c7.8-4.2,17.28-2.24,22.82,4.22c0.87,1,1.64,2.11,2.29,3.32L241.19,117.752z"/>
	<path style="fill:#F9B775;" d="M235.957,108.032l-15.968,21.131l-12.44-23.12c-4.85-9.02-1.48-20.26,7.54-25.11
		c1.55-0.83,3.17-1.43,4.82-1.78c0.87,1,1.64,2.11,2.29,3.32L235.957,108.032z"/>
	<circle style="fill:#4D4D4D;" cx="299.819" cy="157.938" r="6.578"/>
	<path style="fill:#F9B775;" d="M354.632,217.044l-11.868,19.164c-3.767,6.094-9.222,10.706-15.505,13.446
		c-6.188,2.705-13.18,3.593-20.129,2.301l-53.807-10.03c-57.757-10.759-117.19,6.527-160.161,46.583l-30.065,28.02
		c-15.176-12.265-28.315-27.188-38.628-44.314c67.833-53.083,155.232-74.356,239.644-58.647c23.996,4.464,48.419,6.037,72.771,4.839
		C342.811,218.113,348.727,217.66,354.632,217.044z"/>
	<path style="fill:#666666;" d="M155.154,103.115c-4.066,15.751-9.32,49.107,2.239,93.548c0,0-29.604-45.018-22.932-90.44
		L155.154,103.115z"/>
	<path style="fill:#666666;" d="M78.497,114.641c-4.833,19.122-10.774,58.65,2.865,111.096c0,0-35.075-53.339-27.524-107.379
		L78.497,114.641z"/>
	<path style="fill:#666666;" d="M133.962,259.69c-5.626,2.92-11.104,6.132-16.429,9.656C102.835,231.425,105.7,192.18,105.7,192.18
		C113.095,220.614,123.672,242.93,133.962,259.69z"/>
	<path style="fill:#666666;" d="M79.289,301.435L63.82,315.853c-19.7-40.743-16.292-87.434-16.292-87.434
		C55.764,260.085,67.949,284.174,79.289,301.435z"/>
	<path style="fill:#F9B775;" d="M362.68,204.052l-3.51,5.67l-4.54,7.32l-6.25,10.1c-5.24,1.73-11.38,2.72-17.95,2.72
		c-19.14,0-34.66-8.45-34.66-18.87c0-10.41,15.52-18.86,34.66-18.86C345.07,192.132,357.59,197.072,362.68,204.052z"/>
	<path style="fill:#666666;" d="M368.629,194.422l-9.462,15.304c-3.804-2.348-6.745-6.109-7.958-10.774
		c-1.8-6.92,0.68-13.95,5.803-18.29L368.629,194.422z"/>
</g>
<g>
</g>
<g>
</g>
<g>
</g>
<g>
</g>
<g>
</g>
<g>
</g>
<g>
</g>
<g>
</g>
<g>
</g>
<g>
</g>
<g>
</g>
<g>
</g>
<g>
</g>
<g>
</g>
<g>
</g>
</svg>
